<svg width="774" height="385" fill="none" xmlns="http://www.w3.org/2000/svg">
    <path d="M373 0c66.274 0 120 53.726 120 120s-53.726 120-120 120-120-53.726-120-120S306.726 0 373 0z"
        fill="url(#paint0_linear)" />
    <path fill-rule="evenodd" clip-rule="evenodd"
        d="M373 6.628c62.614 0 113.372 50.758 113.372 113.372S435.614 233.372 373 233.372 259.628 182.614 259.628 120 310.386 6.628 373 6.628z"
        fill="#F07C00" />
    <path fill-rule="evenodd" clip-rule="evenodd"
        d="M393.979 50.393c6.562 0 11.786 2.183 15.699 6.547 3.409 3.802 4.955 8.318 4.646 13.51h-62.189l-4.448 27.93h32.497c2.217 0 4.226-.726 5.977-2.183.749-.624 1.376-1.294 1.868-2.02h22.617c-.785 3.851-2.836 7.127-6.164 9.866-3.539 2.914-5.648 4.365-9.993 4.365 4.345 0 7.817 1.467 10.417 4.365 2.624 2.928 3.578 6.467 2.92 10.609l-.502 3.149-.299 1.879-2.486 15.608c-.988 6.214-4.132 11.503-9.441 15.885-5.293 4.368-11.23 6.548-17.784 6.548h-9.407c-.21-.35-.37-.716-.476-1.097-.188-.673-.219-1.414-.075-2.216l2.922-16.44h4.027c2.217 0 4.225-.728 5.976-2.182 1.769-1.468 2.815-3.205 3.144-5.277l2.072-13.012c.326-2.044-.154-3.817-1.463-5.277-1.283-1.433-3.073-2.182-5.282-2.182h-44.723l9.625 4.945-4.568 22.985h5.984l-3.474 19.753h-27.158l19.453-116.058h60.088z"
        fill="#fff" />
    <path fill-rule="evenodd" clip-rule="evenodd"
        d="M355.733 96.168l.233-1.466c.955-5.998 4.012-11.131 9.203-15.368 5.173-4.223 10.933-6.346 17.264-6.346h49.128l-2.326 19.44h-44.498c-2.092 0-4.023.715-5.736 2.114a9.243 9.243 0 00-1.558 1.626h-21.71zM371.596 170.141h56.159l-2.381 19.466h-62.276c-6.331 0-11.412-2.151-15.235-6.399-3.835-4.264-5.358-9.413-4.3-15.423l8.3-47.165h20.775l-7.527 42.319c-.351 1.974.171 3.677 1.422 5.088 1.263 1.424 2.971 2.114 5.063 2.114z"
        fill="#fff" />
    <path fill-rule="evenodd" clip-rule="evenodd"
        d="M365.339 175.479h1.564l-2.631 3.555a.624.624 0 01-.337.228l-.662 3.82h-1.355l.662-3.82a.377.377 0 01-.258-.228l-1.397-3.555h1.562l.987 2.517 1.865-2.517zm5.61 1.311a.565.565 0 00-.371.144.581.581 0 00-.203.346l-.234 1.349h2.775l-.229 1.319H369.298l.561.306-.18 1.043a.398.398 0 00.405.488h3.282l-.228 1.318h-3.627c-.408 0-.731-.145-.97-.433-.238-.288-.323-.637-.252-1.045l.811-4.68c.07-.407.276-.755.613-1.041.339-.287.712-.43 1.12-.43h3.627l-.228 1.316h-3.283zm9.946-1.305c.408 0 .73.143.967.429.236.287.321.635.251 1.042l-1.065 6.147h-1.36l.49-2.832.698-.323h-3.023l-.547 3.155h-1.354l1.065-6.147c.07-.407.274-.755.61-1.042a1.683 1.683 0 011.115-.429h2.153zm-.433 3.15l.225-1.302a.41.41 0 00-.084-.35.392.392 0 00-.32-.144h-1.402a.558.558 0 00-.371.144.576.576 0 00-.204.35l-.225 1.302h2.381zm5.281 1.657l-.486 2.806h-1.333l1.322-7.63h3.629c.408 0 .73.144.966.434.236.288.321.636.251 1.043l-.177 1.021-.02.116-.038.217a1.15 1.15 0 01-.409.697c-.224.192-.47.286-.739.286a.78.78 0 01.639.289c.16.19.216.422.168.694l-.036.209-.022.127-.432 2.497h-1.366l.41-2.365.048-.275a.417.417 0 00-.083-.351.396.396 0 00-.321-.145h-2.561l.59.33zm.289-1.668h1.913a.56.56 0 00.372-.143.582.582 0 00.203-.345l.148-.856a.414.414 0 00-.083-.35.396.396 0 00-.321-.145h-1.913l-.319 1.839zm10.882-3.139c.408 0 .73.143.967.429.237.287.32.635.249 1.042l-.177 1.026-.02.11-.037.218a1.148 1.148 0 01-.408.697c-.223.192-.47.286-.74.286.27 0 .484.096.641.287.159.192.213.424.166.696l-.036.207-.021.123-.178 1.025c-.07.408-.274.754-.61 1.043a1.682 1.682 0 01-1.116.429h-3.623l1.32-7.618h3.623zm-.9 5.832l.148-.854a.4.4 0 00-.408-.49h-2.555l.591.325-.262 1.509h1.908a.555.555 0 00.375-.144.566.566 0 00.203-.346zm.55-3.172l.148-.854a.4.4 0 00-.408-.49h-1.908l-.318 1.834h1.908a.555.555 0 00.375-.144.571.571 0 00.203-.346zm4.777 4.958c-.408 0-.73-.143-.969-.429-.236-.289-.319-.635-.249-1.043l.81-4.675c.071-.407.274-.755.61-1.042.338-.286.71-.429 1.118-.429h2.151c.408 0 .729.143.966.429.237.287.322.635.251 1.042l-.81 4.675c-.07.408-.275.754-.612 1.043-.336.286-.707.429-1.115.429h-2.151zm.89-5.817l-.722 4.165-.646.298H403.349a.574.574 0 00.373-.144.568.568 0 00.207-.346l.773-4.463h-1.891a.574.574 0 00-.377.143.571.571 0 00-.203.347zm6.855 5.817c-.408 0-.73-.143-.969-.429-.236-.289-.32-.635-.249-1.043l.81-4.675c.07-.407.274-.755.61-1.042.338-.286.71-.429 1.118-.429h2.151c.408 0 .729.143.966.429.237.287.322.635.251 1.042l-.81 4.675c-.07.408-.276.754-.612 1.043-.336.286-.707.429-1.115.429h-2.151zm.89-5.817l-.722 4.165-.646.298H411.094a.574.574 0 00.373-.144.568.568 0 00.207-.346l.773-4.463h-1.891a.572.572 0 00-.377.143.571.571 0 00-.203.347zm9.032 1.991l2 3.81h-1.652l-1.652-3.13h-1.083l.582.319-.487 2.811h-1.355l1.32-7.619h1.354l-.542 3.134h.446l2.731-3.128h1.657l-3.319 3.803z"
        fill="#F8A600" />
    <path fill-rule="evenodd" clip-rule="evenodd"
        d="M53.665 292.218h19.003l-31.98 42.848c-1.105 1.4-2.457 2.319-4.099 2.756l-8.043 46.043h-16.47l8.044-46.043c-1.512-.437-2.56-1.356-3.132-2.756L0 292.218h18.985l12.005 30.343 22.675-30.343zm68.195 15.806c-1.63 0-3.144.591-4.513 1.728-1.349 1.158-2.187 2.558-2.469 4.175l-2.841 16.265h33.731l-2.777 15.894h-41.207l6.829 3.695-2.195 12.57c-.284 1.617.066 2.996 1.013 4.154.968 1.158 2.281 1.728 3.912 1.728h39.905l-2.778 15.892h-44.092c-4.961 0-8.89-1.748-11.788-5.224-2.899-3.475-3.929-7.673-3.069-12.592l9.858-56.427c.856-4.898 3.354-9.093 7.461-12.549 4.11-3.453 8.646-5.182 13.606-5.182h44.094l-2.775 15.873H121.86zm120.912-15.74c4.96 0 8.87 1.725 11.749 5.181 2.88 3.454 3.91 7.652 3.054 12.55l-12.947 74.11h-16.534l5.965-34.148 8.486-3.891h-36.753l-6.646 38.039h-16.47l12.946-74.11c.856-4.898 3.333-9.096 7.418-12.55 4.089-3.456 8.623-5.181 13.562-5.181h26.17zm-5.266 37.974l2.741-15.698c.291-1.662-.058-3.061-1.027-4.219-.945-1.158-2.256-1.726-3.886-1.726H218.29c-1.652 0-3.142.568-4.513 1.726-1.368 1.158-2.188 2.557-2.479 4.219l-2.742 15.698h28.95zm64.202 19.982l-5.909 33.821h-16.205l16.069-91.973h44.117c4.961 0 8.871 1.725 11.743 5.224 2.877 3.477 3.907 7.672 3.051 12.57l-2.15 12.308-.246 1.4-.457 2.624c-.577 3.3-2.234 6.098-4.973 8.393-2.72 2.32-5.717 3.456-8.98 3.456 3.263 0 5.86 1.159 7.769 3.475 1.938 2.296 2.618 5.094 2.043 8.373l-.438 2.515-.268 1.529-5.261 30.106h-16.601l4.982-28.51.58-3.321c.291-1.662-.058-3.082-1.003-4.22-.966-1.158-2.275-1.749-3.907-1.749h-31.131l7.175 3.979zm3.514-20.114h23.259c1.633 0 3.144-.567 4.515-1.725 1.349-1.161 2.186-2.537 2.467-4.156l1.805-10.318c.288-1.662-.058-3.082-1.006-4.22-.966-1.158-2.275-1.749-3.907-1.749h-23.259l-3.874 22.168z"
        fill="#fff" />
    <path fill-rule="evenodd" clip-rule="evenodd"
        d="M705.681 337.909l24.317 45.932h-20.083l-20.084-37.734h-13.163l7.068 3.848-5.922 33.886h-16.469L677.39 292h16.47l-6.598 37.775h5.422l33.2-37.712h20.151l-40.354 45.846zm-268.585-45.713c4.961 0 8.87 1.725 11.75 5.181 2.88 3.454 3.888 7.652 3.032 12.55l-2.16 12.372-.233 1.333-.458 2.624c-.577 3.302-2.215 6.101-4.951 8.397-2.72 2.316-5.719 3.452-9.004 3.452 3.285 0 5.883 1.159 7.798 3.454 1.931 2.319 2.588 5.118 2.016 8.396l-.436 2.492-.26 1.486-2.157 12.353c-.861 4.919-3.333 9.094-7.423 12.572-4.086 3.453-8.599 5.179-13.559 5.179H377l16.046-91.841h44.05zm53.812 91.841c-4.96 0-8.872-1.726-11.774-5.179-2.874-3.478-3.888-7.653-3.027-12.572l9.845-56.359c.855-4.898 3.332-9.096 7.419-12.55 4.107-3.456 8.621-5.181 13.582-5.181h26.148c4.961 0 8.868 1.725 11.75 5.181 2.88 3.454 3.909 7.652 3.053 12.55l-9.845 56.359c-.86 4.919-3.354 9.094-7.444 12.572-4.089 3.453-8.599 5.179-13.559 5.179h-26.148zm82.379-5.179c2.901 3.453 6.813 5.179 11.774 5.179h26.148c4.96 0 9.471-1.726 13.559-5.179 4.09-3.478 6.584-7.653 7.445-12.572l9.845-56.359c.855-4.898-.174-9.096-3.054-12.55-2.882-3.456-6.789-5.181-11.75-5.181h-26.148c-4.96 0-9.476 1.725-13.583 5.181-4.086 3.454-6.562 7.652-7.418 12.55l-9.845 56.359c-.861 4.919.152 9.094 3.027 12.572zm24.344-64.956l-8.774 50.216-7.857 3.586h30.226c1.634 0 3.145-.591 4.535-1.728 1.392-1.158 2.233-2.557 2.514-4.174l9.4-53.802h-22.994c-1.7 0-3.211.589-4.58 1.725-1.37 1.158-2.188 2.558-2.47 4.177zm-103.773 50.216l8.775-50.216c.28-1.619 1.098-3.019 2.469-4.177 1.368-1.136 2.879-1.725 4.579-1.725h22.994l-9.399 53.802c-.281 1.617-1.123 3.016-2.515 4.174-1.39 1.137-2.902 1.728-4.534 1.728H486l7.858-3.586zm-59.947-39.916l1.8-10.297c.283-1.619-.041-3.018-1.01-4.177-.95-1.137-2.278-1.728-3.953-1.728h-23.195l-3.861 22.104h23.194c1.676 0 3.206-.57 4.556-1.728 1.37-1.158 2.183-2.536 2.469-4.174zm-6.679 38.237l1.799-10.3c.282-1.616-.041-3.015-1.01-4.174-.949-1.136-2.279-1.727-3.955-1.727H393l7.187 3.914-3.177 18.189h23.195c1.675 0 3.208-.57 4.557-1.728 1.371-1.159 2.184-2.537 2.47-4.174z"
        fill="#EE8815" />
    <circle cx="757" cy="367" r="17" fill="#F07C00" />
    <defs>
        <linearGradient id="paint0_linear" x1="253" y1="0" x2="253" y2="240" gradientUnits="userSpaceOnUse">
            <stop stop-color="#F8A600" />
            <stop offset=".38" stop-color="#FFEC00" />
            <stop offset=".52" stop-color="#FCF2DA" />
            <stop offset=".69" stop-color="#F8A600" />
            <stop offset="1" stop-color="#FFEC00" />
        </linearGradient>
    </defs>
</svg>