<svg width="353" height="353" fill="none" xmlns="http://www.w3.org/2000/svg">
    <path
        d="M176.241.158c97.335 0 176.241 78.906 176.241 176.241 0 97.335-78.906 176.241-176.241 176.241C78.906 352.64 0 273.734 0 176.399 0 79.064 78.906.158 176.241.158z"
        fill="url(#paint0_linear)" />
    <path fill-rule="evenodd" clip-rule="evenodd"
        d="M176.241 9.892c91.959 0 166.507 74.548 166.507 166.507S268.2 342.906 176.241 342.906c-91.96 0-166.507-74.548-166.507-166.507 0-91.96 74.548-166.507 166.507-166.507z"
        fill="#F07C00" />
    <path fill-rule="evenodd" clip-rule="evenodd"
        d="M207.053 74.17c9.637 0 17.309 3.204 23.056 9.615 5.007 5.583 7.278 12.216 6.824 19.841h-91.336l-6.532 41.019h47.728c3.256 0 6.205-1.065 8.778-3.205 1.1-.916 2.02-1.9 2.743-2.966h33.217c-1.153 5.655-4.165 10.467-9.053 14.49-5.198 4.279-8.295 6.41-14.677 6.41 6.382 0 11.481 2.154 15.3 6.411 3.854 4.3 5.255 9.498 4.288 15.58l-.737 4.625-.439 2.76-3.651 22.924c-1.452 9.126-6.069 16.894-13.867 23.329-7.773 6.416-16.492 9.617-26.117 9.617h-13.817a6.508 6.508 0 01-.699-1.611c-.276-.988-.321-2.076-.111-3.255l4.293-24.144h5.913c3.256 0 6.206-1.07 8.778-3.205 2.598-2.155 4.134-4.707 4.618-7.751l3.042-19.109c.479-3.003-.226-5.607-2.148-7.751-1.886-2.104-4.514-3.205-7.758-3.205h-65.684l14.136 7.264-6.708 33.757h8.787l-5.102 29.01H90.233l28.569-170.45h88.251z"
        fill="#fff" />
    <path fill-rule="evenodd" clip-rule="evenodd"
        d="M150.882 141.397l.342-2.152c1.402-8.81 5.892-16.349 13.515-22.571 7.598-6.202 16.057-9.32 25.356-9.32h72.154l-3.418 28.549h-65.352c-3.072 0-5.908 1.051-8.425 3.106a13.54 13.54 0 00-2.287 2.388h-31.885zM174.179 250.04h82.48l-3.497 28.588h-91.464c-9.298 0-16.761-3.158-22.375-9.398-5.632-6.261-7.869-13.824-6.315-22.65l12.189-69.27h30.513l-11.056 62.153c-.514 2.898.252 5.399 2.089 7.471 1.854 2.093 4.363 3.106 7.436 3.106z"
        fill="#fff" />
    <path fill-rule="evenodd" clip-rule="evenodd"
        d="M164.99 257.88h2.296l-3.864 5.22a.914.914 0 01-.495.336l-.972 5.609h-1.989l.971-5.609a.553.553 0 01-.378-.336l-2.052-5.22h2.293l1.451 3.697 2.739-3.697zm8.239 1.925a.832.832 0 00-.545.211.858.858 0 00-.299.509l-.343 1.981h4.075l-.335 1.937H170.803l.825.45-.265 1.531a.601.601 0 00.123.506.578.578 0 00.472.211h4.821l-.335 1.936h-5.327c-.6 0-1.074-.213-1.424-.636-.351-.424-.475-.935-.371-1.535l1.191-6.874c.103-.597.405-1.108.901-1.529.497-.421 1.045-.631 1.644-.631h5.327l-.335 1.933h-4.821zm14.607-1.917c.6 0 1.072.21 1.42.631.348.421.472.932.369 1.529l-1.564 9.029h-1.998l.721-4.16 1.025-.474H183.369l-.803 4.634h-1.99l1.564-9.029c.103-.597.403-1.108.896-1.529.494-.421 1.042-.631 1.639-.631h3.161zm-.636 4.626l.331-1.912a.604.604 0 00-.124-.514.571.571 0 00-.469-.21h-2.059a.82.82 0 00-.546.21.848.848 0 00-.299.514l-.331 1.912h3.497zm7.756 2.435l-.713 4.12h-1.958l1.941-11.205h5.33c.599 0 1.072.21 1.419.636.347.424.472.935.368 1.532l-.26 1.499-.029.171-.055.32c-.07.402-.27.743-.601 1.022a1.624 1.624 0 01-1.085.421c.394 0 .708.141.938.424.235.279.317.62.247 1.02l-.053.306-.032.186-.636 3.668h-2.005l.602-3.473.07-.405a.612.612 0 00-.121-.514.584.584 0 00-.472-.213h-3.761l.866.485zm.425-2.451h2.81c.197 0 .38-.069.545-.21a.85.85 0 00.298-.506l.218-1.257a.613.613 0 00-.121-.515.584.584 0 00-.472-.213h-2.81l-.468 2.701zm15.982-4.61c.6 0 1.072.21 1.42.631.348.421.47.932.366 1.529l-.261 1.507-.028.163-.055.319c-.07.403-.268.744-.598 1.023a1.626 1.626 0 01-1.088.421c.397 0 .711.141.942.421.233.282.313.623.243 1.023l-.052.303-.032.181-.26 1.505c-.104.6-.403 1.108-.897 1.532-.494.421-1.039.631-1.638.631h-5.322l1.939-11.189h5.321zm-1.321 8.566l.217-1.255a.602.602 0 00-.122-.509.591.591 0 00-.478-.21h-3.753l.868.477-.383 2.216h2.802c.202 0 .387-.07.55-.211a.84.84 0 00.299-.508zm.807-4.659l.217-1.254a.6.6 0 00-.122-.509.589.589 0 00-.477-.211h-2.803l-.466 2.693H210a.82.82 0 00.55-.21.84.84 0 00.299-.509zm7.015 7.282c-.599 0-1.071-.21-1.422-.631-.347-.424-.47-.932-.366-1.532l1.19-6.866c.103-.597.402-1.108.896-1.529.496-.421 1.042-.631 1.641-.631h3.159c.599 0 1.071.21 1.419.631.348.421.473.932.369 1.529l-1.189 6.866c-.104.6-.405 1.108-.9 1.532-.493.421-1.038.631-1.638.631h-3.159zm1.308-8.544l-1.06 6.118-.95.437h3.652c.197 0 .38-.072.548-.211a.84.84 0 00.304-.508l1.135-6.555h-2.778a.836.836 0 00-.553.21.839.839 0 00-.298.509zm10.067 8.544c-.599 0-1.072-.21-1.422-.631-.348-.424-.47-.932-.366-1.532l1.189-6.866c.104-.597.403-1.108.897-1.529.496-.421 1.041-.631 1.641-.631h3.159c.599 0 1.071.21 1.419.631.348.421.472.932.369 1.529l-1.189 6.866c-.104.6-.406 1.108-.9 1.532-.494.421-1.039.631-1.638.631h-3.159zm1.307-8.544l-1.06 6.118-.949.437h3.652c.197 0 .38-.072.548-.211a.838.838 0 00.303-.508l1.136-6.555h-2.778a.836.836 0 00-.553.21.84.84 0 00-.299.509zm13.266 2.924l2.937 5.596h-2.426l-2.426-4.597H240.306l.854.469-.715 4.128h-1.99l1.939-11.189h1.989l-.797 4.602h.655l4.011-4.594h2.435l-4.875 5.585z"
        fill="#F8A600" />
    <defs>
        <linearGradient id="paint0_linear" x1="0" y1=".158" x2="0" y2="352.64" gradientUnits="userSpaceOnUse">
            <stop stop-color="#F8A600" />
            <stop offset=".38" stop-color="#FFEC00" />
            <stop offset=".52" stop-color="#FCF2DA" />
            <stop offset=".69" stop-color="#F8A600" />
            <stop offset="1" stop-color="#FFEC00" />
        </linearGradient>
    </defs>
</svg>