<svg width="191" height="35" fill="none" xmlns="http://www.w3.org/2000/svg">
    <path fill-rule="evenodd" clip-rule="evenodd"
        d="M19.695 0c1.624 0 2.918.54 3.887 1.621.844.941 1.227 2.06 1.15 3.345H9.333l-1.1 6.916h8.046c.549 0 1.046-.18 1.48-.54.185-.155.34-.321.462-.5h5.6c-.194.952-.702 1.764-1.526 2.442-.876.721-1.398 1.08-2.474 1.08 1.076 0 1.935.364 2.579 1.081.65.725.886 1.602.723 2.627l-.124.78-.074.465-.616 3.865c-.245 1.538-1.023 2.848-2.338 3.933-1.31 1.082-2.78 1.621-4.403 1.621H13.24a1.095 1.095 0 01-.118-.271 1.224 1.224 0 01-.019-.55l.724-4.07h.997c.549 0 1.046-.18 1.48-.54.438-.363.697-.793.778-1.306l.513-3.222c.081-.507-.038-.945-.362-1.307-.318-.355-.76-.54-1.308-.54H4.851l2.383 1.224-1.131 5.691h1.481l-.86 4.891H0L4.816 0h14.879z"
        fill="#fff" />
    <path fill-rule="evenodd" clip-rule="evenodd"
        d="M10.225 11.334l.057-.363c.237-1.485.994-2.756 2.279-3.805 1.28-1.046 2.707-1.571 4.275-1.571H29l-.576 4.813H17.406c-.518 0-.996.177-1.42.523a2.28 2.28 0 00-.386.403h-5.375zM14.152 29.65h13.906l-.59 4.82h-15.42c-1.567 0-2.825-.533-3.772-1.585-.95-1.055-1.327-2.33-1.065-3.818l2.055-11.679h5.145l-1.864 10.479c-.087.488.042.91.352 1.26.312.352.735.523 1.254.523zM47.143 8.027h3.946l-6.64 8.845a1.58 1.58 0 01-.851.57l-1.67 9.504h-3.42l1.67-9.505a.947.947 0 01-.65-.569L36 8.027h3.942l2.493 6.264 4.708-6.264zm14.161 3.263c-.339 0-.653.122-.937.357-.28.239-.454.528-.513.861l-.59 3.358h7.005l-.577 3.281h-8.557l1.418.763-.455 2.595c-.06.334.013.619.21.858.2.239.474.356.812.356h8.286L66.83 27h-9.156c-1.03 0-1.846-.36-2.448-1.078-.602-.718-.816-1.585-.637-2.6l2.047-11.649c.178-1.01.696-1.877 1.55-2.59.853-.713 1.794-1.07 2.825-1.07h9.156l-.577 3.277h-8.286zm25.107-3.25c1.03 0 1.842.357 2.44 1.07.598.713.812 1.58.634 2.59L86.797 27h-3.433l1.238-7.05 1.762-.803h-7.631L77.353 27h-3.42l2.688-15.3c.178-1.01.692-1.877 1.54-2.59.849-.713 1.79-1.07 2.816-1.07h5.434zm-1.093 7.84l.57-3.24c.06-.344-.013-.633-.214-.872-.196-.239-.469-.356-.807-.356h-3.54c-.342 0-.652.117-.936.356-.285.24-.455.528-.515.871l-.57 3.24h6.012zm13.331 4.125l-1.227 6.982h-3.364L97.394 8h9.161c1.03 0 1.842.356 2.438 1.078.598.718.812 1.584.634 2.595l-.447 2.541-.051.29-.095.541c-.119.681-.463 1.259-1.032 1.733-.565.479-1.187.713-1.865.713.678 0 1.217.24 1.613.718.403.473.544 1.051.425 1.728l-.091.52-.056.315-1.092 6.215h-3.448l1.035-5.886.12-.685c.061-.343-.012-.637-.208-.871-.201-.24-.472-.362-.811-.362h-6.465l1.49.822zm.73-4.152h4.83c.339 0 .653-.117.937-.357.28-.24.454-.523.513-.858l.374-2.13c.06-.343-.012-.636-.209-.87-.2-.24-.472-.362-.811-.362h-4.83l-.804 4.577zm27.47-7.812c1.03 0 1.842.356 2.44 1.069.598.713.807 1.58.63 2.59l-.449 2.555-.048.275-.095.542c-.12.681-.46 1.26-1.028 1.733-.565.478-1.188.713-1.87.713.682 0 1.222.24 1.619.713.401.479.538 1.056.419 1.733l-.091.515-.054.306-.448 2.55c-.178 1.016-.692 1.878-1.541 2.596-.848.713-1.786 1.069-2.816 1.069h-9.147l3.332-18.96h9.147zm-2.271 14.514l.373-2.126c.059-.334-.008-.623-.209-.862-.197-.235-.474-.357-.822-.357H117.47l1.492.808-.66 3.755h4.817c.347 0 .666-.117.946-.356a1.42 1.42 0 00.513-.862zm1.387-7.894l.373-2.125c.059-.335-.008-.623-.209-.863-.198-.234-.473-.356-.821-.356h-4.816l-.802 4.563h4.816c.348 0 .666-.118.946-.357.285-.239.453-.523.513-.862zM138.023 27c-1.03 0-1.842-.356-2.445-1.07-.596-.717-.807-1.579-.628-2.594l2.044-11.635c.178-1.011.692-1.878 1.541-2.591.852-.713 1.79-1.07 2.82-1.07h5.43c1.03 0 1.841.357 2.439 1.07.598.713.812 1.58.634 2.59l-2.044 11.636c-.178 1.015-.696 1.877-1.546 2.595-.849.713-1.785 1.069-2.815 1.069h-5.43zm2.247-14.478l-1.822 10.367-1.632.74h6.277c.339 0 .653-.122.941-.357.289-.239.464-.528.523-.861l1.951-11.107h-4.774c-.353 0-.667.121-.951.356-.285.239-.455.528-.513.862zM157.574 27c-1.03 0-1.842-.356-2.445-1.07-.597-.717-.807-1.579-.628-2.594l2.044-11.635c.178-1.011.692-1.878 1.54-2.591.853-.713 1.791-1.07 2.821-1.07h5.429c1.031 0 1.842.357 2.44 1.07.598.713.812 1.58.634 2.59l-2.044 11.636c-.179 1.015-.696 1.877-1.546 2.595-.849.713-1.785 1.069-2.815 1.069h-5.43zm2.247-14.478l-1.822 10.367-1.632.74h6.277c.339 0 .653-.122.941-.357.289-.239.464-.528.522-.861l1.952-11.107h-4.775c-.352 0-.666.121-.95.356-.285.239-.455.528-.513.862zm22.8 4.955l5.049 9.483h-4.17l-4.171-7.79H176.596l1.468.794-1.23 6.996h-3.42L176.746 8h3.42l-1.37 7.798h1.126l6.894-7.785H191l-8.379 9.464z"
        fill="#fff" /></svg>